<svg width="226" height="115" viewBox="0 0 226 115" fill="none" xmlns="http://www.w3.org/2000/svg">
<path d="M126.448 11.2712L66.6479 114.839H225.34L165.54 11.2712C163.557 7.84363 160.706 4.99798 157.276 3.01968C153.845 1.04138 149.954 0 145.994 0C142.034 0 138.143 1.04138 134.713 3.01968C131.282 4.99798 128.432 7.84363 126.448 11.2712Z" fill="#1F803D"/>
<path d="M43.0776 11.3667L3.03079 80.9953C1.0528 84.4148 0.00768045 88.2937 4.21708e-05 92.244C-0.00759611 96.1943 1.02252 100.077 2.98727 103.504C4.95202 106.931 7.78248 109.782 11.1953 111.772C14.6082 113.761 18.4837 114.819 22.4339 114.84H141.875L82.1702 11.3667C80.1864 7.93909 77.3362 5.09343 73.9055 3.11514C70.4748 1.13684 66.5842 0.095459 62.6239 0.095459C58.6637 0.095459 54.773 1.13684 51.3423 3.11514C47.9116 5.09343 45.0614 7.93909 43.0776 11.3667Z" fill="#36A455"/>
<path d="M189.397 75.3333C201.94 75.3333 212.108 65.1652 212.108 52.6221C212.108 40.0791 201.94 29.9109 189.397 29.9109C176.853 29.9109 166.685 40.0791 166.685 52.6221C166.685 65.1652 176.853 75.3333 189.397 75.3333Z" fill="#D9DC42"/>
</svg>
